<svg width="475" height="383" viewBox="0 0 475 383" fill="none" xmlns="http://www.w3.org/2000/svg">
<path fill-rule="evenodd" clip-rule="evenodd" d="M381.385 225.206C387.932 219.148 384.286 211.201 375.381 210.684C366.451 210.164 357.701 207.304 350.461 201.964C325.591 183.644 326.571 143.144 352.981 126.664C356.814 124.272 360.6 122.739 364.388 121.756C382.224 117.125 393.256 104.184 380.471 90.9138C367.861 77.8138 351.431 68.1738 333.321 65.1938C321.861 63.3138 309.911 64.1638 298.341 64.1638C281.671 64.1538 265.011 64.1838 248.341 64.1538C235.011 64.1338 221.671 64.1538 208.341 64.1538C194.341 64.1438 180.341 64.1438 166.341 64.1538C160.561 64.1538 153.051 65.4838 147.811 62.5638C139.101 57.7038 141.311 47.4339 143.991 39.6439C150.081 21.9639 167.371 6.64383 185.481 2.31383C196.011 -0.206165 206.601 0.243851 217.341 0.173851C233.011 0.0838507 248.671 0.143831 264.341 0.153831C279.011 0.153831 293.671 0.243861 308.341 0.183861C324.631 0.113861 341.271 -0.346164 357.281 3.28384C425.461 18.7538 468.841 77.5438 474.191 145.544C479.441 212.154 439.121 278.004 377.261 302.944C354.701 312.034 333.291 312.724 309.341 312.814C296.011 312.864 282.671 312.804 269.341 312.784C256.061 312.754 242.771 313.034 233.341 302.034C219.011 285.304 226.821 256.214 248.711 250.484C256.961 248.324 265.901 249.194 274.341 249.184C292.011 249.154 311.941 250.574 329.341 248.974C349.356 247.14 367.13 238.396 381.385 225.206ZM3.71278 147.056C-0.785465 146.949 -1.18521 144.426 3.2608 143.734C13.2508 142.184 23.2808 141.094 33.3408 140.114C57.3508 137.774 81.3708 135.684 105.391 133.424C117.931 132.244 130.811 131.904 143.241 129.754C148.511 128.844 154.501 126.784 158.791 123.524C162.701 120.554 164.701 116.234 168.051 112.764C173.621 107.004 181.341 102.974 189.341 102.054C193.971 101.524 198.691 101.784 203.341 101.814C207.611 101.854 212.081 101.354 216.301 102.204C227.461 104.434 235.931 114.274 236.811 125.544C237.051 128.644 236.891 131.614 235.951 134.584C228.511 158.124 200.291 151.504 181.341 151.094C138.671 150.184 96.0108 148.484 53.3408 147.404C36.8462 146.983 20.2318 147.451 3.71278 147.056ZM370.551 136.364C348.221 141.574 340.331 170.794 356.641 186.754C365.311 195.244 376.011 194.934 387.341 194.974C401.671 195.044 416.011 195.004 430.341 194.994C437.671 194.994 451.151 197.864 455.671 190.354C457.661 187.064 457.521 182.274 458.001 178.544C459.211 169.164 459.641 159.994 459.181 150.544C458.951 145.824 459.591 140.254 455.091 137.294C450.321 134.164 438.161 135.614 432.341 135.614C419.341 135.604 406.341 135.684 393.341 135.644C385.971 135.624 377.761 134.684 370.551 136.364ZM375.421 150.334C395.241 147.614 399.231 177.904 380.091 180.624C359.841 183.494 355.631 153.054 375.421 150.334ZM4.66119 212.214C0.182528 212.187 -0.120792 209.276 4.33078 208.784C12.6708 207.874 20.9908 206.754 29.3408 205.834C60.6008 202.404 92.0008 200.754 123.291 197.694C130.151 197.024 136.851 195.854 143.121 192.814C150.271 189.324 156.041 184.524 164.341 184.074C175.281 183.464 186.391 184.134 197.341 184.184C204.141 184.224 211.221 183.844 216.661 188.724C226.291 197.384 218.471 220.364 215.791 231.544C209.011 259.754 203.171 288.324 197.181 316.724C193.911 332.234 192.251 350.084 182.361 363.044C174.911 372.804 163.571 380.154 151.301 381.754C134.401 383.954 115.881 374.654 113.131 356.484C111.401 344.994 115.371 333.644 117.651 322.504C122.271 299.904 126.951 277.234 132.191 254.774C134.091 246.634 135.761 238.454 137.441 230.264C138.241 226.334 139.071 221.684 135.751 218.624C132.561 215.684 127.311 216.234 123.341 216.114C114.331 215.834 105.351 215.294 96.3408 215.044C71.3608 214.344 46.2408 213.754 21.2908 212.464C15.7635 212.181 10.2089 212.246 4.66119 212.214Z" fill="#E7AA39" stroke="#E7AA39" stroke-width="0.25" stroke-linejoin="round"/>
</svg>
